<?xml version="1.0" encoding="utf-8"?>
<!-- Generator: Adobe Illustrator 25.2.1, SVG Export Plug-In . SVG Version: 6.00 Build 0)  -->
<svg version="1.1" id="Capa_1" xmlns="http://www.w3.org/2000/svg" xmlns:xlink="http://www.w3.org/1999/xlink" x="0px" y="0px"
	 viewBox="0 0 32 32" style="enable-background:new 0 0 32 32;" xml:space="preserve">
<style type="text/css">
	.st0{fill:#087038;}
	.st1{fill:none;}
</style>
<g id="Layer_2">
	<path class="st0" d="M15,21c-0.3,0-0.5-0.1-0.7-0.3l-4-4c-0.4-0.4-0.4-1,0-1.4s1-0.4,1.4,0l3.3,3.3l6.3-6.3c0.4-0.4,1-0.4,1.4,0
		s0.4,1,0,1.4l-7,7C15.5,20.9,15.3,21,15,21z"/>
	<path class="st0" d="M16,29C8.8,29,3,23.2,3,16S8.8,3,16,3s13,5.8,13,13S23.2,29,16,29z M16,5C9.9,5,5,9.9,5,16s4.9,11,11,11
		s11-4.9,11-11S22.1,5,16,5z"/>
</g>
<g id="frame">
	<rect class="st1" width="32" height="32"/>
</g>
</svg>
