<svg id="Capa_1" data-name="Capa 1" xmlns="http://www.w3.org/2000/svg" viewBox="0 0 50.81 49.97"><defs><style>.cls-1{fill:#bfd133;}.cls-2{fill:#75b848;}</style></defs><path class="cls-1" d="M38.49,200l.31-.31a53.25,53.25,0,0,0,12-19.66.89.89,0,0,0-.62-1l-1.63-.43s-.89-.24-1.76-.45c-12.29-3-23.85-3.47-35.28-3.42a.49.49,0,0,0-.32.13,10.33,10.33,0,0,0-2.5,4,18.74,18.74,0,0,0-.6,5.1c-.12,3,.1,2.7,0,4.52-.23,3.11-.83,3.22-1.34,7.41a16.13,16.13,0,0,1-.46,2.78c-.11.39-.24.84-.43,1.33Z" transform="translate(0 -150.03)"/><path class="cls-2" d="M6.79,200c.84-3.15,2.59-12.7,4.5-25.3a121.9,121.9,0,0,0-6.82-24.31c-.12-.32-.5-.47-.67-.27q-1.93,2.12-3.8,4.2V200Z" transform="translate(0 -150.03)"/></svg>