<svg id="Capa_1" data-name="Capa 1" xmlns="http://www.w3.org/2000/svg" viewBox="0 0 62.47 86.51"><defs><style>.cls-1{fill:#bfd133;}.cls-2{fill:#75b848;}</style></defs><path class="cls-1" d="M13.34,58.64c3.22,0,3.22-5,0-5s-3.22,5,0,5Z" transform="translate(0 -13.49)"/><path class="cls-1" d="M62,69.09l-2.25-1.18s-1.23-.65-2.45-1.26c-29.77-15-44.63-22.5-53.57-17.89A24.61,24.61,0,0,0,0,51.37V100c9.59-1,18.57-4.56,27.2-8A123.72,123.72,0,0,0,62.12,70.7,1,1,0,0,0,62,69.09Z" transform="translate(0 -13.49)"/><path class="cls-2" d="M11.16,13.54C7.38,15.17,3.65,16.77,0,18.4V52.72l3.38-4h0A142.41,142.41,0,0,0,12,14.16.61.61,0,0,0,11.16,13.54Z" transform="translate(0 -13.49)"/></svg>