<svg id="Capa_1" data-name="Capa 1" xmlns="http://www.w3.org/2000/svg" viewBox="0 0 47.73 54.6"><defs><style>.cls-1{fill:#bfd133;}.cls-2{fill:#75b848;}</style></defs><path class="cls-1" d="M200,158.16,198.7,157a59.06,59.06,0,0,0-21-11.69.83.83,0,0,0-1,.66l-.27,1.67s-.14.91-.26,1.8c-1.78,12.6-1,24.38.21,36a.45.45,0,0,0,.17.33,11.47,11.47,0,0,0,4.32,2.44,18.69,18.69,0,0,0,5.2.48c3,.05,2.71-.17,4.56-.08,3.15.15,3.33.75,7.61,1.16.69.07,1.22.11,1.79.2Z" transform="translate(-152.27 -145.3)"/><path class="cls-2" d="M200,189.13c-4.5-.84-13-2.12-23.63-3.45h0a114.63,114.63,0,0,0-23.78,7.57c-.31.13-.42.52-.2.69,2.51,2.05,5,4.07,7.45,6H200Z" transform="translate(-152.27 -145.3)"/></svg>