<svg id="Capa_1" data-name="Capa 1" xmlns="http://www.w3.org/2000/svg" viewBox="0 0 48.76 84.68"><defs><style>.cls-1{fill:#bfd133;}.cls-2{fill:#75b848;}</style></defs><path class="cls-1" d="M199.94,52a95.73,95.73,0,0,0-27.23-12.24.91.91,0,0,0-1.13.9c0,.65,0,1.39.06,2.21,0,0,0,1.2.1,2.37.8,16.61,4.74,32.07,9.27,47.32a.87.87,0,0,0,.3.43,18.54,18.54,0,0,0,6.32,3c1.91.49,3.63.48,7,.45,3.58,0,3.59-.26,5.32-.27Z" transform="translate(-151.24 -39.69)"/><path class="cls-2" d="M200,94.79c-5.42-.63-11.82-1.32-18.91-2a132,132,0,0,0-29.54,10.77.54.54,0,0,0-.09.92c13.8,9.37,26.32,18.41,43.18,19.78a34.58,34.58,0,0,0,4.71.07l.65-.06Z" transform="translate(-151.24 -39.69)"/></svg>