<svg id="Capa_1" data-name="Capa 1" xmlns="http://www.w3.org/2000/svg" viewBox="0 0 49.69 72.96"><defs><style>.cls-1{fill:#bfd133;}.cls-2{fill:#75b848;}</style></defs><path class="cls-1" d="M12,126.69c3.22,0,3.23-5,0-5s-3.22,5,0,5Z" transform="translate(0 -63.52)"/><path class="cls-2" d="M21.87,63.52C14.31,64.54,7,65.44,0,67.08V97.51C2.4,95.78,4.94,93.93,7.58,92h0A130.9,130.9,0,0,0,22.41,64.27.54.54,0,0,0,21.87,63.52Z" transform="translate(0 -63.52)"/><path class="cls-1" d="M49.45,124.53c-.44-.48-1-1-1.52-1.6l-1.65-1.71C34.6,109.37,21.36,100.48,7.82,92.14A.79.79,0,0,0,7.31,92,18.42,18.42,0,0,0,.56,94c-.19.1-.38.2-.56.31v42.15a109.37,109.37,0,0,0,16.54-.89A95.74,95.74,0,0,0,49.21,126,.92.92,0,0,0,49.45,124.53Z" transform="translate(0 -63.52)"/></svg>