<svg id="Capa_1" data-name="Capa 1" xmlns="http://www.w3.org/2000/svg" viewBox="0 0 57.68 55.66"><defs><style>.cls-1{fill:#bfd133;}.cls-2{fill:#75b848;}</style></defs><path class="cls-1" d="M176.71,12.73c3.22,0,3.23-5,0-5s-3.22,5,0,5Z" transform="translate(-142.32)"/><path class="cls-2" d="M200,3.09c-3.68,5.16-9.58,13.81-16.55,24.38a136.61,136.61,0,0,0-6.31,27.76.36.36,0,0,0,.6.34C185.65,50.11,193.26,45,200,38.75Z" transform="translate(-142.32)"/><path class="cls-1" d="M200,0H164.18a119.07,119.07,0,0,0-21.61,19.64c-.37.43-.32,1,.1,1.2l1.57.56,1.7.59c11.94,4,24.55,5,37.29,5.47a.72.72,0,0,0,.43-.13,18.17,18.17,0,0,0,5.09-4.44c2.68-3.72,4-5.57,4.21-5.88,1.35-2.14,1.79-3.08,3.87-6.75C198.18,7.88,199.3,6,200,4.79Z" transform="translate(-142.32)"/></svg>