<svg id="Capa_1" data-name="Capa 1" xmlns="http://www.w3.org/2000/svg" viewBox="0 0 158.61 158.67"><defs><style>.cls-1{fill:#bfd134;}.cls-2{fill:#75b847;}</style></defs><path class="cls-1" d="M152.35,130.53s-2.45-1.44-4.88-2.81C113,108.15,76.55,95.67,39.69,84.5h0c-15.14,16-28.55,29.68-38.85,39.9L1,180.08c1.32.38,2.67.74,4.05,1.07,29.2,6.92,55.67-1.13,80.73-8.84a235.79,235.79,0,0,0,73.55-37.64C157.54,133.61,155.18,132.18,152.35,130.53Z" transform="translate(-0.68 -25.11)"/><path class="cls-2" d="M5.31,129.24a116.17,116.17,0,0,0,13.23-12.05A267.65,267.65,0,0,0,38.73,93,222.28,222.28,0,0,0,51.27,61,215.58,215.58,0,0,0,59,25.11C38.53,32,18.71,38.3.68,47L.9,132.48C2,131.72,3.52,130.63,5.31,129.24Z" transform="translate(-0.68 -25.11)"/></svg>