<svg id="Capa_1" data-name="Capa 1" xmlns="http://www.w3.org/2000/svg" xmlns:xlink="http://www.w3.org/1999/xlink" viewBox="0 0 115.13 75.76"><defs><style>.cls-1{fill:#e3e3e2;}.cls-2{fill:#231f20;opacity:0.1;isolation:isolate;}.cls-3{fill:#d64c3d;}.cls-4{fill:#d72c28;fill-rule:evenodd;}.cls-5{fill:url(#Degradado_sin_nombre_2);}</style><linearGradient id="Degradado_sin_nombre_2" x1="44.34" y1="258.86" x2="158.7" y2="258.86" gradientTransform="translate(0 -150)" gradientUnits="userSpaceOnUse"><stop offset="0" stop-color="#010101" stop-opacity="0.1"/><stop offset="1" stop-color="#010101" stop-opacity="0.2"/></linearGradient></defs><path class="cls-1" d="M151.66,142.6H50.92c-3.84,0-7.2-2.9-7.2-6.21V73.87c0-3.31,3.36-6.21,7.2-6.21H151.66c3.84,0,7.19,2.9,7.19,6.21v62.52C158.85,140.12,155.5,142.6,151.66,142.6Z" transform="translate(-43.72 -67.25)"/><path class="cls-2" d="M58.11,142.6l43.18-29.81.48-1.66L57.15,83.81v57.55Z" transform="translate(-43.72 -67.25)"/><path class="cls-3" d="M50.92,142.6c-3.84,0-7.2-2.9-7.2-6.21V73.87c0-3.31,3.36-4.14,7.2-4.14s7.19.83,7.19,4.14V143H50.92Z" transform="translate(-43.72 -67.25)"/><path class="cls-4" d="M43.72,73.87c0-3.31,3.36-4.14,7.2-4.14s7.19.42,7.19,4.14V143H50.92c-3.84,0-7.2-2.89-7.2-6.21Zm13.43,0c0-1.65-1-3.31-6.23-3.31s-6.24,1.24-6.24,3.31V136.8c0,2.9,2.88,5.39,6.24,5.39h6.23Z" transform="translate(-43.72 -67.25)"/><path class="cls-3" d="M151.66,142.6h-7.2V73.46c0-3.31,3.36-3.73,7.2-3.73s7.19.42,7.19,3.73v62.93C158.85,140.12,155.5,142.6,151.66,142.6Z" transform="translate(-43.72 -67.25)"/><path class="cls-4" d="M144.46,73.46c0-3.31,3.36-3.73,7.2-3.73s7.19.42,7.19,3.73v62.93c0,3.31-3.35,6.21-7.19,6.21h-7.2Zm13.43,0c0-2.07-1.44-2.9-6.23-2.9s-6.24.83-6.24,2.9v68.31h6.24c3.36,0,6.23-2.48,6.23-5.38Z" transform="translate(-43.72 -67.25)"/><path class="cls-5" d="M121,142.6,44.68,76.36l3.84,1.24,53.25,33.12,57.08-36v62.1c0,3.32-3.35,6.21-7.19,6.21H121Z" transform="translate(-43.72 -67.25)"/><path class="cls-3" d="M101.29,112.79,47.08,78.84c-3.36-2.07-4.32-5.79-1.92-8.69a7.81,7.81,0,0,1,10.07-1.24l46.06,29,46.05-29a8.25,8.25,0,0,1,10.07,1.24c2.4,2.9,1.44,6.62-1.44,8.69Z" transform="translate(-43.72 -67.25)"/><path class="cls-4" d="M147.34,68.49a8.58,8.58,0,0,1,4.32-1.24,7.25,7.25,0,0,1,5.75,2.48c2.4,2.9,1.44,6.63-1.44,8.7l-54.68,34.36L47.08,78.84c-3.36-2.07-4.32-5.79-1.92-8.69a8,8,0,0,1,5.76-2.49,8.53,8.53,0,0,1,4.31,1.25l46.06,29Zm9.11,1.66a7.06,7.06,0,0,0-4.79-2.07,12.61,12.61,0,0,0-3.84.83l-46,29-.48.82-.48-.41L55.23,69.73a6,6,0,0,0-3.83-1.24,8.31,8.31,0,0,0-5.28,2.07A4.85,4.85,0,0,0,47.56,78L101.29,112,155.5,78A5.64,5.64,0,0,0,156.45,70.15Z" transform="translate(-43.72 -67.25)"/></svg>