<svg id="LOGO" xmlns="http://www.w3.org/2000/svg" viewBox="0 0 160.66 116.67"><defs><style>.cls-1{fill:#bfd42f;}.cls-2{fill:#71be46;}.cls-3{fill:#086f37;}.cls-4{fill:#06451a;}</style></defs><path class="cls-1" d="M312.08,547.89c4-7.45,8.25-14.73,13.89-21.11a3.18,3.18,0,0,1,2.25-1.51c3.3,12,7.14,23.93,2.38,36.48-1.36,3.58-3,5.51-5,6.79a11.85,11.85,0,0,1-6,1.83c-.19.08-.44.14-.58,0-.29-.26.15-1.23.3-1.54,2.78-5.74.78-10.53-2.85-15.09C315,551.85,313,550.25,312.08,547.89Z" transform="translate(-214.47 -525.27)"/><path class="cls-2" d="M317.5,546.35c7.23,7.71,7.78,15.62,7.76,17.87a5.83,5.83,0,0,1-.8,3.44,5,5,0,0,1-2.17,1.74,11.8,11.8,0,0,1-8.11-.65c-1.44-.73-3.42-2.2-5.36-6.19-3.93-8.11-3.6-16.79-3.57-26.16A59.57,59.57,0,0,1,317.5,546.35Z" transform="translate(-214.47 -525.27)"/><path class="cls-1" d="M313,546.53a32.77,32.77,0,0,0-14.64-3.9,40.42,40.42,0,0,0,18.6,28l0,0a7.52,7.52,0,0,0,9.77-9.74A33.11,33.11,0,0,0,313,546.53Z" transform="translate(-214.47 -525.27)"/><path class="cls-3" d="M214.47,565.42a58.13,58.13,0,0,1,9.79-.76c5.46,0,9,.93,11.44,3a8.73,8.73,0,0,1,3.11,6.92c0,4.81-3.28,8-7.45,9.3V584c3,1,4.87,3.57,5.81,7.36,1.29,5.08,2.23,8.6,3.05,10h-5.28c-.64-1-1.52-4.16-2.64-8.7-1.17-5-3.28-6.93-7.92-7.09h-4.81v15.79h-5.1Zm5.1,16.6h5.22c5.46,0,8.92-2.75,8.92-6.92,0-4.7-3.7-6.76-9.09-6.81a22.53,22.53,0,0,0-5.05.43Z" transform="translate(-214.47 -525.27)"/><path class="cls-3" d="M252.21,567.85c.06,1.63-1.24,2.93-3.29,2.93a3,3,0,0,1-3.11-2.93,3,3,0,0,1,3.23-3A3,3,0,0,1,252.21,567.85Zm-5.75,33.53V575.21h5.16v26.17Z" transform="translate(-214.47 -525.27)"/><path class="cls-3" d="M260.2,582.29c0-2.7-.06-4.92-.24-7.08h4.58l.29,4.33H265a10.6,10.6,0,0,1,9.39-4.92c3.93,0,10,2.16,10,11.13v15.63h-5.16V586.3c0-4.22-1.71-7.74-6.58-7.74a7.26,7.26,0,0,0-6.92,4.87,6.47,6.47,0,0,0-.35,2.22v15.73H260.2Z" transform="translate(-214.47 -525.27)"/><path class="cls-3" d="M313,600.41a20.33,20.33,0,0,1-8.15,1.52c-8.57,0-14.15-5.36-14.15-13.36s6-13.9,15.26-13.9a18.52,18.52,0,0,1,7.16,1.35L312,579.7a12.73,12.73,0,0,0-6-1.25c-6.51,0-10,4.44-10,9.9,0,6.06,4.22,9.79,9.85,9.79a15.61,15.61,0,0,0,6.34-1.3Z" transform="translate(-214.47 -525.27)"/><path class="cls-3" d="M344.42,588.08c0,9.68-7.27,13.9-14.14,13.9-7.68,0-13.61-5.19-13.61-13.47,0-8.76,6.22-13.89,14.08-13.89C338.91,574.62,344.42,580.08,344.42,588.08Zm-22.53.27c0,5.73,3.58,10.06,8.63,10.06s8.62-4.27,8.62-10.17c0-4.43-2.4-10.06-8.51-10.06S321.89,583.38,321.89,588.35Zm16.37-24.44-7.15,7.73h-3.7l5.16-7.73Z" transform="translate(-214.47 -525.27)"/><path class="cls-3" d="M351,582.29c0-2.7-.06-4.92-.23-7.08h4.58l.29,4.33h.12a10.58,10.58,0,0,1,9.38-4.92c3.93,0,10,2.16,10,11.13v15.63H370V586.3c0-4.22-1.7-7.74-6.57-7.74a7.26,7.26,0,0,0-6.92,4.87,6.47,6.47,0,0,0-.35,2.22v15.73H351Z" transform="translate(-214.47 -525.27)"/><path class="cls-4" d="M232.46,641.38l-14.11-34.2h6L231.11,624a134.53,134.53,0,0,1,4.62,12.78h.13a131.05,131.05,0,0,1,4.94-12.73l7.31-16.9h6l-15.45,34.2Z" transform="translate(-214.47 -525.27)"/><path class="cls-4" d="M259.61,629.92c.13,6,5,8.52,10.64,8.52a25.1,25.1,0,0,0,8.59-1.27l1,3.2a31,31,0,0,1-10.33,1.52c-9.55,0-15.26-5-15.26-12.38s5.52-13.24,14.56-13.24c10.13,0,12.82,7.05,12.82,11.57a14.1,14.1,0,0,1-.19,2.08Zm16.54-3.2c.06-2.84-1.47-7.26-7.82-7.26a8.38,8.38,0,0,0-8.66,7.26Z" transform="translate(-214.47 -525.27)"/><path class="cls-4" d="M288.61,624.49c0-2.9-.07-5.38-.26-7.66h4.94l.19,4.81h.26a9.21,9.21,0,0,1,8.59-5.37,7.7,7.7,0,0,1,1.6.15v4.21a10.77,10.77,0,0,0-1.92-.15,7.37,7.37,0,0,0-7.57,5.73,10,10,0,0,0-.25,2.08v13.09h-5.58Z" transform="translate(-214.47 -525.27)"/><path class="cls-4" d="M335.75,605.36V635c0,2.18.07,4.67.26,6.34h-5.07l-.25-4.26h-.13c-1.74,2.74-5.52,4.82-10.58,4.82-7.51,0-13.28-5-13.28-12.48-.06-8.17,6.35-13.19,13.92-13.19,4.74,0,7.95,1.77,9.36,3.75h.13V605.36Zm-5.64,21.46a6.41,6.41,0,0,0-.26-1.88c-.83-2.84-3.91-5.17-8.14-5.17-5.84,0-9.3,4.06-9.3,9.49,0,5,3.08,9.08,9.17,9.08,3.78,0,7.24-2,8.27-5.33a6.3,6.3,0,0,0,.26-1.93Z" transform="translate(-214.47 -525.27)"/><path class="cls-4" d="M348.27,629.92c.13,6,5,8.52,10.65,8.52a25.14,25.14,0,0,0,8.59-1.27l1,3.2a31,31,0,0,1-10.32,1.52c-9.56,0-15.26-5-15.26-12.38s5.51-13.24,14.55-13.24c10.13,0,12.83,7.05,12.83,11.57a14.1,14.1,0,0,1-.19,2.08Zm16.55-3.2c.06-2.84-1.48-7.26-7.83-7.26a8.37,8.37,0,0,0-8.65,7.26Z" transform="translate(-214.47 -525.27)"/></svg>