<svg id="Capa_1" data-name="Capa 1" xmlns="http://www.w3.org/2000/svg" viewBox="0 0 455.59 102.98"><defs><style>.cls-1{fill:#3aaa35;}.cls-2{fill:#bfd134;}.cls-3{fill:#010101;}.cls-4{fill:#057139;}.cls-5{fill:#114522;}.cls-6{fill:#bfd133;}.cls-7{fill:#75b848;}.cls-8{fill:#706f6f;}</style></defs><path class="cls-1" d="M179.58,75.38a2.6,2.6,0,0,0,.3-.72,4.53,4.53,0,0,1,.12-.44,3.36,3.36,0,0,1,.16-.36c.13-.3.1-.56.17-.7.19-.39.33-.81.52-1.2a9.75,9.75,0,0,1,7.6-5.65,20.71,20.71,0,0,1,4.13-.31c-.22-.32-.41-.58-.58-.84a12.1,12.1,0,0,1-2-9.09,5.54,5.54,0,0,1,2-3.37,6.91,6.91,0,0,1,5.69-1.16,19.45,19.45,0,0,1,6,2.18c.59.3,1.17.63,1.78,1,.06-.33.12-.61.18-.9a21.94,21.94,0,0,1,3.42-8.7A12.61,12.61,0,0,1,215.14,40a6.91,6.91,0,0,1,7.1,1.31,9.82,9.82,0,0,1,2.95,5.6,24.87,24.87,0,0,1-.72,10.36A51.73,51.73,0,0,1,221.24,66c-.19.42-.36.84-.54,1.26a.74.74,0,0,0,.35-.29c1-1.37,2-2.74,2.9-4.14A52.57,52.57,0,0,0,229.73,52a14.19,14.19,0,0,0,1-6.74,3.33,3.33,0,0,0-4.14-2.69c-.82.18-1.62.41-2.47.67a7.16,7.16,0,0,1,3.32-2.19,4.25,4.25,0,0,1,4.58,1.15,5.21,5.21,0,0,1,1.32,3.26,17,17,0,0,1-1.49,8,60.4,60.4,0,0,1-6.66,11.86c-1.13,1.63-2.32,3.23-3.5,4.87a6.49,6.49,0,0,0,.68-.07,1.29,1.29,0,0,1,.65,0,1.09,1.09,0,0,0,1.53-.51s.07-.08.11-.12a23.94,23.94,0,0,1,5.38-3.89,23.45,23.45,0,0,1,5.7-2.42,3,3,0,0,1,2.88.51,2.16,2.16,0,0,1,.45,2.39c-.22.89-1.4,1.3-2.7,1-.54-.12-1.14-.22-1.29-.78a1.12,1.12,0,0,1,.31-1.3,2,2,0,0,1,1.64-.25c.22,0,.22.12.17.29-.13.39-.47.22-.74.22s-.71.08-.79.47.13.67.59.76a3.82,3.82,0,0,0,1.07.11c.85-.1,1.14-.35,1.21-1.09.11-1.09-.28-1.66-1.29-1.86a3.71,3.71,0,0,0-1.81.17,24,24,0,0,0-4.6,2A25,25,0,0,0,225.09,70a2.1,2.1,0,0,0-.53.7.55.55,0,0,0,.44,0,32.71,32.71,0,0,1,4.3-1,36.3,36.3,0,0,1,7.29-.59c1.66.05,3.11.38,3.82,1.86l0,.83c-.11.11,0,.26-.12.39a2.39,2.39,0,0,1-3.46,1.2,3.07,3.07,0,0,1-1.14-1.12,1.18,1.18,0,0,1,.71-1.73,1.77,1.77,0,0,1,2,.56c.1.17.16.33,0,.48a.53.53,0,0,1-.6.07c-.18-.08-.31-.22-.49-.3-.39-.15-.77,0-.77.38,0,.57,1.17,1.32,1.79,1.14a2,2,0,0,0,1.2-1.39,1.42,1.42,0,0,0-1.06-1.38,5.27,5.27,0,0,0-1.63-.29,28.33,28.33,0,0,0-4.12.14,44.48,44.48,0,0,0-6.62,1.15c-.67.18-.69.22-.48.81a2.28,2.28,0,0,1-.79,2.66,3.11,3.11,0,0,1-3.07.66.82.82,0,0,0-1,.28c-1.37,1.61-2.82,3.17-4.18,4.78a12.45,12.45,0,0,1-3.56,3,31,31,0,0,1-7.24,2.77,14.3,14.3,0,0,1-3.52.57c-.44,0-1,.1-1.23-.34s.2-.74.48-1A15,15,0,0,1,204.3,83c-1.13.37-2.27.62-3.39.9a87.23,87.23,0,0,1-12.71,2.44,10.91,10.91,0,0,1-2.68,0,7.67,7.67,0,0,1-5.44-3,6.13,6.13,0,0,1-1.16-3.16l0-2.07A11.22,11.22,0,0,1,179.58,75.38Zm11.86-7.14h-.24l-.22,0a10.87,10.87,0,0,0-5,1.31,6.39,6.39,0,0,0-1.29,1.07.33.33,0,0,0-.1.41c2.57-1.28,6.43-2,13.54.24-.51-.43-.93-.77-1.34-1.13a17.78,17.78,0,0,1-1.37-1.22,2.85,2.85,0,0,0-.67-.56C193.83,67.67,192.55,68.22,191.44,68.24Zm28.26,5.88c.2-.1.24-.21.13-.37a1.7,1.7,0,0,1-.23-.85,9.48,9.48,0,0,0-2.35,2.5C218.16,74.92,218.93,74.51,219.7,74.12Zm-6.64,3.79c.73-.5,1.49-1,2.25-1.45a.47.47,0,0,0,.23-.27c.85-2.9,2.36-5.59,3.31-8.46a119.38,119.38,0,0,0,3.36-12.21,26,26,0,0,0,.67-6.21,9.61,9.61,0,0,0-1.8-5.69c-1.47-2-3.64-2.36-5.92-1.13a11.08,11.08,0,0,0-3.95,3.73,21.73,21.73,0,0,0-3.41,10l-.28,2.6c-1.46-.91-2.84-1.82-4.28-2.65a18.49,18.49,0,0,0-6.08-2.42c-2.58-.45-4.31.56-4.68,2.82a10.19,10.19,0,0,0,2.58,8.57A50.07,50.07,0,0,0,204.53,73c2.48,1.74,5.08,3.34,7.71,4.91A.64.64,0,0,0,213.06,77.91ZM182,81.4a4.4,4.4,0,0,0,4,2.51,41.84,41.84,0,0,0,6.62-.23c3.83-.37,7.62-1,11.39-1.66.87-.16,1.74-.34,2.61-.49a4.53,4.53,0,0,0,1.46-.67l2.35-1.36A60.87,60.87,0,0,0,195,72.75a16.37,16.37,0,0,0-6.12-.6,8,8,0,0,0-6.75,4.53A5.29,5.29,0,0,0,182,81.4Z" transform="translate(-87.48 -39.56)"/><path class="cls-2" d="M212,75.24a64,64,0,0,0,2.65-6.71,27.68,27.68,0,0,0,1.33-5.42,8.55,8.55,0,0,0,0-2.37c-.27-1.71-2.12-2.47-3.82-1.55a5.12,5.12,0,0,0-2.18,2.68,12.92,12.92,0,0,0-.94,3.26,11.93,11.93,0,0,0-2.4-1.76,3.52,3.52,0,0,0-3.62-.12,2.71,2.71,0,0,0-1,3.73,11.71,11.71,0,0,0,2.87,3.35A44.58,44.58,0,0,0,212,75.24Z" transform="translate(-87.48 -39.56)"/><path class="cls-2" d="M201.36,78.86a25.36,25.36,0,0,0-8.68-3.7,7,7,0,0,0-4.09.31c-1.77.75-2.31,2.28-1.3,3.76a4.32,4.32,0,0,0,4.06,1.85A43.23,43.23,0,0,0,201.36,78.86Z" transform="translate(-87.48 -39.56)"/><path class="cls-3" d="M175.75,76.45" transform="translate(-87.48 -39.56)"/><path class="cls-4" d="M87.48,89.23h17c10,0,18.21,2.42,18.21,10.25,0,7.57-8.2,10.82-18.21,10.82H98.14v11.85H87.48Zm16.12,15.16c5.6,0,8.62-1.67,8.62-4.91s-3-4.34-8.62-4.34H98.14v9.25Zm-1.09,4,7.38-4.76,15,18.57H113Z" transform="translate(-87.48 -39.56)"/><path class="cls-4" d="M130.12,89.54c0-2.28,2.59-3.88,6.16-3.88s6.15,1.6,6.15,3.88-2.59,3.88-6.15,3.88S130.12,91.8,130.12,89.54Zm.82,7.55h10.64v25.06H130.94Z" transform="translate(-87.48 -39.56)"/><path class="cls-4" d="M150.91,97.09h8.68l.77,3.17h.26a20,20,0,0,1,11.53-3.78c7.81,0,11.14,3.85,11.14,10.11v15.56H172.65V107.54c0-3.6-1.38-4.73-4.46-4.73-2.67,0-4.3.87-6.64,2.44v16.9H150.91Z" transform="translate(-87.48 -39.56)"/><path class="cls-4" d="M190.21,109.63c0-8.33,8.79-13.15,18.7-13.15a19.92,19.92,0,0,1,10.49,2.7l-5,4.78a9,9,0,0,0-4.87-1.48c-5.11,0-8.4,2.81-8.4,7.15s3.42,7.14,8,7.14a13.63,13.63,0,0,0,6.48-1.85l4.16,4.86a23.14,23.14,0,0,1-11.83,3C197.94,122.76,190.21,118,190.21,109.63Z" transform="translate(-87.48 -39.56)"/><path class="cls-4" d="M222,109.63c0-8.33,8.41-13.15,17.49-13.15s17.48,4.82,17.48,13.15-8.4,13.13-17.48,13.13S222,118,222,109.63Zm24.07,0c0-4.34-2.18-7.15-6.58-7.15s-6.59,2.81-6.59,7.15,2.19,7.14,6.59,7.14S246,114,246,109.63ZM235,89.6l11.1-9.2,7.22,4.93-13.08,7.91Z" transform="translate(-87.48 -39.56)"/><path class="cls-4" d="M264.21,97.09h8.68l.77,3.17h.26a20,20,0,0,1,11.53-3.78c7.81,0,11.14,3.85,11.14,10.11v15.56H286V107.54c0-3.6-1.38-4.73-4.46-4.73-2.67,0-4.3.87-6.64,2.44v16.9H264.21Z" transform="translate(-87.48 -39.56)"/><path class="cls-5" d="M318.6,94h14l7,13.3c1.74,3.13,2.91,6,4.68,9.16h.36c1.77-3.15,3-6,4.68-9.16L356.23,94h13.51l-17.62,28.55H336.25Z" transform="translate(-87.48 -39.56)"/><path class="cls-5" d="M370.59,111.66c0-7,10.29-11.4,21-11.4,12.66,0,18.94,4.5,18.94,10.43a7.6,7.6,0,0,1-.55,2.85h-26.6c1.18,3.15,5.6,4.59,11.53,4.59a34,34,0,0,0,9.61-1.42l4.36,3.88A52.29,52.29,0,0,1,393.09,123C380.41,123,370.59,118.85,370.59,111.66Zm28.66-2.38c0-2.39-2.13-4.11-7.39-4.11-4.16,0-7.76,1.36-8.65,4.11Z" transform="translate(-87.48 -39.56)"/><path class="cls-5" d="M419.6,100.79h10.75l.95,3.8h.33c3.24-2.9,8.1-4.33,12.63-4.33a24.1,24.1,0,0,1,5.31.44l-2.2,5.56a36.12,36.12,0,0,0-4.8-.35c-3.35,0-7.42,1-9.79,4v12.6H419.6Z" transform="translate(-87.48 -39.56)"/><path class="cls-5" d="M452.09,111.66c0-7.1,9.08-11.4,18.45-11.4a24,24,0,0,1,10.9,2.27L481,99.24v-7.4h13.18v30.68H483.39l-.95-2.16h-.33A28.19,28.19,0,0,1,470.28,123C459.23,123,452.09,118.75,452.09,111.66ZM481,115.83v-8.92a18.51,18.51,0,0,0-7.35-1.38c-4.27,0-8,1.93-8,6.06s3,6.18,8.11,6.18A12.52,12.52,0,0,0,481,115.83Z" transform="translate(-87.48 -39.56)"/><path class="cls-5" d="M503.16,111.66c0-7,10.29-11.4,21-11.4,12.67,0,18.94,4.5,18.94,10.43a7.41,7.41,0,0,1-.55,2.85h-26.6c1.18,3.15,5.6,4.59,11.53,4.59a34,34,0,0,0,9.62-1.42l4.36,3.88A52.41,52.41,0,0,1,525.65,123C513,123,503.16,118.85,503.16,111.66Zm28.66-2.38c0-2.39-2.13-4.11-7.39-4.11-4.17,0-7.76,1.36-8.66,4.11Z" transform="translate(-87.48 -39.56)"/><path class="cls-6" d="M230.56,81.37a27.76,27.76,0,0,1,3.34-5.51,1.06,1.06,0,0,1,.61-.48c1.44,2.3,3,4.54,2.1,7.56a3.45,3.45,0,0,1-1.22,1.81,5.17,5.17,0,0,1-1.72.83.3.3,0,0,1-.17,0c-.1,0,0-.27,0-.35.61-1.42-.17-2.29-1.43-3A5.48,5.48,0,0,1,230.56,81.37Z" transform="translate(-87.48 -39.56)"/><path class="cls-7" d="M232.12,80.64c2.44,1.1,2.91,2.74,3,3.22a1,1,0,0,1-.11.79,1.75,1.75,0,0,1-.58.53,5,5,0,0,1-2.44.46,3,3,0,0,1-1.84-.91c-1.48-1.43-1.71-3.3-2.06-5.29A17.22,17.22,0,0,1,232.12,80.64Z" transform="translate(-87.48 -39.56)"/><path class="cls-6" d="M230.77,81a13.26,13.26,0,0,0-4.52.26,6.71,6.71,0,0,0,2,2.62,10.58,10.58,0,0,0,4.57,1.95h0a3.2,3.2,0,0,0,2.46-1.08,1.33,1.33,0,0,0,.08-1.72A8.09,8.09,0,0,0,230.77,81Z" transform="translate(-87.48 -39.56)"/><path class="cls-8" d="M142.28,132.14h1.59l.16,1.11h.06a6.6,6.6,0,0,1,3.81-1.3c2.39,0,3.46,1,3.46,3v4.89h-1.92v-4.72c0-1.44-.64-2-2.14-2a5.1,5.1,0,0,0-3.1,1.18v5.59h-1.92Z" transform="translate(-87.48 -39.56)"/><path class="cls-8" d="M154.35,137.85c0-1.68,2.13-2.52,7-2.88,0-1-.49-1.95-2.34-1.95a8.17,8.17,0,0,0-3.39.83l-.75-.9a11.27,11.27,0,0,1,4.46-1c2.77,0,3.94,1.25,3.94,3.17v4.73h-1.59l-.16-.92h-.06a7.67,7.67,0,0,1-3.76,1.11C155.78,140,154.35,139.24,154.35,137.85Zm7,.12v-2.14c-3.8.31-5.09.94-5.09,1.92s.88,1.24,2,1.24A5.77,5.77,0,0,0,161.32,138Z" transform="translate(-87.48 -39.56)"/><path class="cls-8" d="M166.83,137.46V133.2h-1.69v-1l1.78-.07.23-2.17h1.6v2.17h3.08v1.06h-3.08v4.29c0,.94.45,1.49,1.76,1.49a5.52,5.52,0,0,0,1.29-.21l.37,1a9.58,9.58,0,0,1-2.1.29C167.65,140,166.83,139,166.83,137.46Z" transform="translate(-87.48 -39.56)"/><path class="cls-8" d="M174.24,137v-4.88h1.92v4.71c0,1.44.63,2.06,2.14,2.06a4.34,4.34,0,0,0,3-1.3v-5.47h1.92v7.71h-1.59l-.16-1.21h-.07a5.68,5.68,0,0,1-3.74,1.4C175.31,140,174.24,139,174.24,137Z" transform="translate(-87.48 -39.56)"/><path class="cls-8" d="M187.09,132.14h1.59l.16,1.4h.06a4.15,4.15,0,0,1,3.23-1.59,3.92,3.92,0,0,1,1.21.15l-.36,1.15a4.67,4.67,0,0,0-1.1-.13A3.32,3.32,0,0,0,189,134.9v4.95h-1.92Z" transform="translate(-87.48 -39.56)"/><path class="cls-8" d="M193.93,137.85c0-1.68,2.13-2.52,7-2.88,0-1-.49-1.95-2.34-1.95a8.21,8.21,0,0,0-3.39.83l-.75-.9a11.27,11.27,0,0,1,4.46-1c2.77,0,3.94,1.25,3.94,3.17v4.73h-1.59l-.16-.92H201a7.67,7.67,0,0,1-3.75,1.11C195.36,140,193.93,139.24,193.93,137.85Zm7,.12v-2.14c-3.8.31-5.09.94-5.09,1.92s.88,1.24,2,1.24A5.77,5.77,0,0,0,200.9,138Z" transform="translate(-87.48 -39.56)"/><path class="cls-8" d="M206.4,138.3v-9.76h1.92v9.86a.51.51,0,0,0,.54.55,2.57,2.57,0,0,0,.42,0l.26,1a4.27,4.27,0,0,1-1.11.12C207,140,206.4,139.42,206.4,138.3Z" transform="translate(-87.48 -39.56)"/><path class="cls-8" d="M212.36,132.14h1.58l.17,1.11h.06a6,6,0,0,1,3.53-1.3c1.74,0,2.67.56,3.13,1.47a6.29,6.29,0,0,1,3.75-1.47c2.33,0,3.45,1,3.45,3v4.89h-1.92v-4.72c0-1.44-.67-2-2.11-2a4.84,4.84,0,0,0-2.85,1.18v5.59h-1.92v-4.72c0-1.44-.67-2-2.11-2a4.89,4.89,0,0,0-2.84,1.18v5.59h-1.92Z" transform="translate(-87.48 -39.56)"/><path class="cls-8" d="M230.87,136c0-2.51,2.49-4.05,5.1-4.05,2.9,0,4.53,1.41,4.53,3.62a2.68,2.68,0,0,1-.09.74h-7.64c.14,1.63,1.61,2.69,3.77,2.69a6.66,6.66,0,0,0,2.83-.62l.68.86a9,9,0,0,1-3.74.8C233.28,140,230.87,138.54,230.87,136Zm7.94-.63c0-1.54-1-2.38-2.8-2.38a3.06,3.06,0,0,0-3.26,2.38Z" transform="translate(-87.48 -39.56)"/><path class="cls-8" d="M243.3,132.14h1.58l.17,1.11h.06a6.6,6.6,0,0,1,3.81-1.3c2.39,0,3.46,1,3.46,3v4.89h-1.92v-4.72c0-1.44-.64-2-2.14-2a5.1,5.1,0,0,0-3.1,1.18v5.59H243.3Z" transform="translate(-87.48 -39.56)"/><path class="cls-8" d="M256.41,137.46V133.2h-1.69v-1l1.77-.07.23-2.17h1.61v2.17h3.07v1.06h-3.07v4.29c0,.94.45,1.49,1.75,1.49a5.52,5.52,0,0,0,1.3-.21l.37,1a9.59,9.59,0,0,1-2.11.29C257.23,140,256.41,139,256.41,137.46Z" transform="translate(-87.48 -39.56)"/><path class="cls-8" d="M262.79,136c0-2.51,2.49-4.05,5.11-4.05,2.89,0,4.52,1.41,4.52,3.62a2.68,2.68,0,0,1-.09.74h-7.64c.14,1.63,1.61,2.69,3.77,2.69a6.66,6.66,0,0,0,2.83-.62l.68.86a9,9,0,0,1-3.74.8C265.2,140,262.79,138.54,262.79,136Zm7.94-.63c0-1.54-1-2.38-2.8-2.38a3,3,0,0,0-3.25,2.38Z" transform="translate(-87.48 -39.56)"/><path class="cls-8" d="M274.41,141.78c1.31-.39,2.11-1.1,2.1-2l-.21-1.17.94,1a1.48,1.48,0,0,1-1,.27c-.74,0-1.39-.32-1.39-.91s.66-.91,1.43-.91a1.46,1.46,0,0,1,1.63,1.54c0,1.37-1.18,2.43-3.06,3Z" transform="translate(-87.48 -39.56)"/><path class="cls-8" d="M285.35,129.71c0-.52.58-.85,1.33-.85s1.32.33,1.32.85-.57.84-1.32.84S285.35,130.2,285.35,129.71Zm.35,2.43h1.92v7.71H285.7Z" transform="translate(-87.48 -39.56)"/><path class="cls-8" d="M291.45,132.14H293l.17,1.11h.06a6.6,6.6,0,0,1,3.81-1.3c2.39,0,3.46,1,3.46,3v4.89h-1.92v-4.72c0-1.44-.64-2-2.14-2a5.1,5.1,0,0,0-3.1,1.18v5.59h-1.92Z" transform="translate(-87.48 -39.56)"/><path class="cls-8" d="M303.38,136c0-2.57,2.56-4.05,5.46-4.05a6.08,6.08,0,0,1,3.32.9l-1,.86a4.21,4.21,0,0,0-2.26-.68c-2.05,0-3.56,1.21-3.56,3s1.43,2.95,3.51,2.95a5.18,5.18,0,0,0,2.67-.77l.83.88a7.13,7.13,0,0,1-3.67,1C305.68,140,303.38,138.56,303.38,136Z" transform="translate(-87.48 -39.56)"/><path class="cls-8" d="M314.87,132.14h1.59l.16,1.4h.06a4.15,4.15,0,0,1,3.23-1.59,3.92,3.92,0,0,1,1.21.15l-.36,1.15a4.67,4.67,0,0,0-1.1-.13,3.32,3.32,0,0,0-2.87,1.78v4.95h-1.92Z" transform="translate(-87.48 -39.56)"/><path class="cls-8" d="M321.9,136c0-2.51,2.48-4.05,5.1-4.05,2.89,0,4.53,1.41,4.53,3.62a3.12,3.12,0,0,1-.09.74h-7.65c.14,1.63,1.61,2.69,3.77,2.69a6.66,6.66,0,0,0,2.83-.62l.69.86a9.06,9.06,0,0,1-3.75.8C324.3,140,321.9,138.54,321.9,136Zm7.93-.63c0-1.54-1-2.38-2.8-2.38a3.05,3.05,0,0,0-3.25,2.38Z" transform="translate(-87.48 -39.56)"/><path class="cls-8" d="M334,130.1l3.31-2.64,1.35.87L335,130.75Zm.36,2h1.92v7.71h-1.92Z" transform="translate(-87.48 -39.56)"/><path class="cls-8" d="M341.84,139.05h-.06l-.18.8h-1.53V128.54H342v3.1l-.07,1.38a7.24,7.24,0,0,1,3.57-1.07c2.93,0,4.51,1.54,4.51,3.92,0,2.63-2.33,4.17-4.92,4.17A6.41,6.41,0,0,1,341.84,139.05Zm6.17-3.16c0-1.71-.85-2.85-3-2.85a5.59,5.59,0,0,0-3,1.06v4a5.54,5.54,0,0,0,2.76.8A3,3,0,0,0,348,135.89Z" transform="translate(-87.48 -39.56)"/><path class="cls-8" d="M352.89,138.3v-9.76h1.92v9.86a.5.5,0,0,0,.53.55,2.57,2.57,0,0,0,.42,0l.26,1a4.24,4.24,0,0,1-1.1.12C353.48,140,352.89,139.42,352.89,138.3Z" transform="translate(-87.48 -39.56)"/><path class="cls-8" d="M358,136c0-2.51,2.49-4.05,5.1-4.05,2.89,0,4.53,1.41,4.53,3.62a3.12,3.12,0,0,1-.09.74h-7.65c.14,1.63,1.61,2.69,3.78,2.69a6.64,6.64,0,0,0,2.82-.62l.69.86a9.06,9.06,0,0,1-3.75.8C360.4,140,358,138.54,358,136Zm7.93-.63c0-1.54-1-2.38-2.8-2.38a3.05,3.05,0,0,0-3.25,2.38Z" transform="translate(-87.48 -39.56)"/><path class="cls-8" d="M369.16,139l.95-.86a6.6,6.6,0,0,0,3.35.91c1.49,0,2.23-.54,2.23-1.19,0-.8-1.34-1.15-2.59-1.47-1.6-.39-3.39-.92-3.39-2.23s1.46-2.18,3.91-2.18a7.58,7.58,0,0,1,3.53.86l-.91.84a5.63,5.63,0,0,0-2.59-.69c-1.43,0-2.09.52-2.09,1.11s1.23,1,2.52,1.34c1.63.42,3.46.87,3.46,2.34,0,1.25-1.46,2.29-4.14,2.29A8.91,8.91,0,0,1,369.16,139Z" transform="translate(-87.48 -39.56)"/><path class="cls-8" d="M384.88,132.14h1.58l.16,1.11h.07a6,6,0,0,1,3.53-1.3c1.74,0,2.67.56,3.13,1.47A6.29,6.29,0,0,1,397.1,132c2.33,0,3.45,1,3.45,3v4.89h-1.92v-4.72c0-1.44-.67-2-2.11-2a4.84,4.84,0,0,0-2.85,1.18v5.59h-1.92v-4.72c0-1.44-.67-2-2.11-2a4.89,4.89,0,0,0-2.84,1.18v5.59h-1.92Z" transform="translate(-87.48 -39.56)"/><path class="cls-8" d="M403.39,136c0-2.57,2.48-4.05,5.26-4.05s5.26,1.48,5.26,4.05-2.48,4-5.26,4S403.39,138.56,403.39,136Zm8.53,0a3.29,3.29,0,1,0-3.27,2.95A3,3,0,0,0,411.92,136Z" transform="translate(-87.48 -39.56)"/><path class="cls-8" d="M416.89,132.14h1.59l.16,1.11h.06a6.07,6.07,0,0,1,3.54-1.3c1.73,0,2.66.56,3.13,1.47a6.26,6.26,0,0,1,3.74-1.47c2.33,0,3.45,1,3.45,3v4.89h-1.92v-4.72c0-1.44-.67-2-2.11-2a4.81,4.81,0,0,0-2.84,1.18v5.59h-1.92v-4.72c0-1.44-.67-2-2.11-2a4.91,4.91,0,0,0-2.85,1.18v5.59h-1.92Z" transform="translate(-87.48 -39.56)"/><path class="cls-8" d="M435.41,136c0-2.51,2.49-4.05,5.1-4.05,2.89,0,4.53,1.41,4.53,3.62a3.12,3.12,0,0,1-.09.74H437.3c.14,1.63,1.61,2.69,3.78,2.69a6.64,6.64,0,0,0,2.82-.62l.69.86a9.06,9.06,0,0,1-3.75.8C437.81,140,435.41,138.54,435.41,136Zm7.93-.63c0-1.54-1-2.38-2.8-2.38a3.05,3.05,0,0,0-3.25,2.38Z" transform="translate(-87.48 -39.56)"/><path class="cls-8" d="M447.83,132.14h1.59l.16,1.11h.06a6.63,6.63,0,0,1,3.81-1.3c2.39,0,3.47,1,3.47,3v4.89H455v-4.72c0-1.44-.64-2-2.15-2a5.1,5.1,0,0,0-3.1,1.18v5.59h-1.92Z" transform="translate(-87.48 -39.56)"/><path class="cls-8" d="M460.94,137.46V133.2h-1.69v-1l1.78-.07.23-2.17h1.6v2.17h3.08v1.06h-3.08v4.29c0,.94.45,1.49,1.76,1.49a5.52,5.52,0,0,0,1.29-.21l.37,1a9.59,9.59,0,0,1-2.11.29C461.76,140,460.94,139,460.94,137.46Z" transform="translate(-87.48 -39.56)"/><path class="cls-8" d="M467.33,136c0-2.57,2.48-4.05,5.26-4.05s5.26,1.48,5.26,4.05-2.48,4-5.26,4S467.33,138.56,467.33,136Zm8.53,0a3.29,3.29,0,1,0-3.27,2.95A3,3,0,0,0,475.86,136Z" transform="translate(-87.48 -39.56)"/><path class="cls-8" d="M479.52,139l1-.86a6.6,6.6,0,0,0,3.35.91c1.49,0,2.23-.54,2.23-1.19,0-.8-1.34-1.15-2.59-1.47-1.6-.39-3.39-.92-3.39-2.23S481.53,132,484,132a7.58,7.58,0,0,1,3.53.86l-.92.84A5.56,5.56,0,0,0,484,133c-1.43,0-2.09.52-2.09,1.11s1.23,1,2.52,1.34c1.63.42,3.46.87,3.46,2.34,0,1.25-1.47,2.29-4.14,2.29A8.88,8.88,0,0,1,479.52,139Z" transform="translate(-87.48 -39.56)"/></svg>